<?xml version="1.0" encoding="UTF-8" standalone="no"?>
<!-- Created with Inkscape (http://www.inkscape.org/) -->

<svg
   width="200mm"
   height="200mm"
   viewBox="0 0 210 297"
   version="1.1"
   id="svg5"
   sodipodi:docname="nlogo.svg"
   inkscape:version="1.1.1 (3bf5ae0d25, 2021-09-20)"
   xmlns:inkscape="http://www.inkscape.org/namespaces/inkscape"
   xmlns:sodipodi="http://sodipodi.sourceforge.net/DTD/sodipodi-0.dtd"
   xmlns="http://www.w3.org/2000/svg"
   xmlns:svg="http://www.w3.org/2000/svg">
  <sodipodi:namedview
     id="namedview21"
     pagecolor="#505050"
     bordercolor="#eeeeee"
     borderopacity="1"
     inkscape:pageshadow="0"
     inkscape:pageopacity="0"
     inkscape:pagecheckerboard="0"
     inkscape:document-units="mm"
     showgrid="false"
     inkscape:zoom="1.2664722"
     inkscape:cx="283.06977"
     inkscape:cy="283.06977"
     inkscape:window-width="4300"
     inkscape:window-height="1711"
     inkscape:window-x="10"
     inkscape:window-y="-9"
     inkscape:window-maximized="1"
     inkscape:current-layer="svg5" />
  <defs
     id="defs2">
    <rect
       x="509.375"
       y="168.75"
       width="36.249974"
       height="218.31249"
       id="rect18074" />
    <rect
       x="437.5"
       y="121.875"
       width="250"
       height="653.125"
       id="rect13932" />
    <rect
       x="437.5"
       y="121.875"
       width="250"
       height="653.125"
       id="rect13932-9" />
    <rect
       x="437.5"
       y="121.875"
       width="250"
       height="653.125"
       id="rect13932-0" />
  </defs>
  <g
     id="layer1"
     transform="matrix(1.574532,0,0,1.574532,-60.34642,-90.856192)">
    <path
       id="rect3127"
       style="opacity:1;fill:#0055d4;fill-rule:evenodd;stroke-width:0.133722"
       d="m 104.67578,102.47241 c 0,0 37.03599,52.72906 32.41409,72.41373 -4.62189,19.68467 -18.4199,26.68077 -32.41409,26.68077 -13.994197,0 -27.792209,-6.99609 -32.414104,-26.68077 -4.621896,-19.68467 32.414104,-72.41373 32.414104,-72.41373 z" />
    <path
       id="path8479"
       style="opacity:1;fill:#00002b;stroke:#ffffff;stroke-width:5;stroke-miterlimit:4;stroke-dasharray:none;stroke-opacity:1"
       d="m 104.67578,62.722788 a 89.29687,89.29687 0 0 0 -89.296879,89.296872 89.29687,89.29687 0 0 0 89.296879,89.29687 89.29687,89.29687 0 0 0 89.29687,-89.29687 89.29687,89.29687 0 0 0 -89.29687,-89.296872 z m 0,23.359118 a 65.937754,65.937754 0 0 1 1.95392,0.02901 65.937754,65.937754 0 0 1 1.95226,0.08686 65.937754,65.937754 0 0 1 1.94875,0.144515 65.937754,65.937754 0 0 1 1.94376,0.20236 65.937754,65.937754 0 0 1 1.93673,0.259834 65.937754,65.937754 0 0 1 1.92824,0.317306 65.937754,65.937754 0 0 1 1.91807,0.374042 65.937754,65.937754 0 0 1 1.90606,0.430776 65.937754,65.937754 0 0 1 1.89257,0.487141 65.937754,65.937754 0 0 1 1.87723,0.542951 65.937754,65.937754 0 0 1 1.86023,0.598393 65.937754,65.937754 0 0 1 1.84175,0.653279 65.937754,65.937754 0 0 1 1.8216,0.707427 65.937754,65.937754 0 0 1 1.7998,0.761204 65.937754,65.937754 0 0 1 1.77651,0.814242 65.937754,65.937754 0 0 1 1.75156,0.866357 65.937754,65.937754 0 0 1 1.72514,0.918103 65.937754,65.937754 0 0 1 1.69723,0.968738 65.937754,65.937754 0 0 1 1.66767,1.018449 65.937754,65.937754 0 0 1 1.6368,1.067608 65.937754,65.937754 0 0 1 1.60446,1.115657 65.937754,65.937754 0 0 1 1.57064,1.162597 65.937754,65.937754 0 0 1 1.53553,1.208615 65.937754,65.937754 0 0 1 1.49913,1.2537 65.937754,65.937754 0 0 1 1.46123,1.2975 65.937754,65.937754 0 0 1 1.42206,1.3402 65.937754,65.937754 0 0 1 1.38196,1.38195 65.937754,65.937754 0 0 1 1.34019,1.42206 65.937754,65.937754 0 0 1 1.2975,1.46124 65.937754,65.937754 0 0 1 1.25371,1.49912 65.937754,65.937754 0 0 1 1.20861,1.53553 65.937754,65.937754 0 0 1 1.1626,1.57065 65.937754,65.937754 0 0 1 1.11565,1.60446 65.937754,65.937754 0 0 1 1.06761,1.6368 65.937754,65.937754 0 0 1 1.01845,1.66766 65.937754,65.937754 0 0 1 0.96874,1.69723 65.937754,65.937754 0 0 1 0.9181,1.72514 65.937754,65.937754 0 0 1 0.86636,1.75156 65.937754,65.937754 0 0 1 0.81424,1.77652 65.937754,65.937754 0 0 1 0.76121,1.79979 65.937754,65.937754 0 0 1 0.70742,1.82161 65.937754,65.937754 0 0 1 0.65328,1.84175 65.937754,65.937754 0 0 1 0.5984,1.86023 65.937754,65.937754 0 0 1 0.54295,1.87723 65.937754,65.937754 0 0 1 0.48714,1.89256 65.937754,65.937754 0 0 1 0.43077,1.90606 65.937754,65.937754 0 0 1 0.37404,1.91808 65.937754,65.937754 0 0 1 0.31713,1.92823 65.937754,65.937754 0 0 1 0.26002,1.93674 65.937754,65.937754 0 0 1 0.20235,1.94376 65.937754,65.937754 0 0 1 0.14452,1.94875 65.937754,65.937754 0 0 1 0.0869,1.95226 65.937754,65.937754 0 0 1 0.029,1.95391 65.937754,65.937754 0 0 1 -0.25096,5.74683 65.937754,65.937754 0 0 1 -0.75086,5.70321 65.937754,65.937754 0 0 1 -1.24502,5.61598 65.937754,65.937754 0 0 1 -1.72975,5.48607 65.937754,65.937754 0 0 1 -2.20119,5.31438 65.937754,65.937754 0 0 1 -2.65618,5.10242 65.937754,65.937754 0 0 1 -3.09083,4.85145 65.937754,65.937754 0 0 1 -3.50165,4.56371 65.937754,65.937754 0 0 1 -3.88623,4.24105 65.937754,65.937754 0 0 1 -4.24104,3.88622 65.937754,65.937754 0 0 1 -4.56371,3.50165 65.937754,65.937754 0 0 1 -4.85146,3.09084 65.937754,65.937754 0 0 1 -5.10241,2.65617 65.937754,65.937754 0 0 1 -5.31439,2.20119 65.937754,65.937754 0 0 1 -5.48606,1.72976 65.937754,65.937754 0 0 1 -5.61599,1.24502 65.937754,65.937754 0 0 1 -5.7032,0.75085 65.937754,65.937754 0 0 1 -5.74682,0.25097 65.937754,65.937754 0 0 1 -5.746832,-0.25097 65.937754,65.937754 0 0 1 -5.703204,-0.75085 65.937754,65.937754 0 0 1 -5.615982,-1.24502 65.937754,65.937754 0 0 1 -5.486067,-1.72976 65.937754,65.937754 0 0 1 -5.314383,-2.20119 65.937754,65.937754 0 0 1 -5.102417,-2.65617 65.937754,65.937754 0 0 1 -4.85145,-3.09084 65.937754,65.937754 0 0 1 -4.563718,-3.50165 65.937754,65.937754 0 0 1 -4.241042,-3.88622 65.937754,65.937754 0 0 1 -3.886226,-4.24105 65.937754,65.937754 0 0 1 -3.50165,-4.56371 65.937754,65.937754 0 0 1 -3.090831,-4.85145 65.937754,65.937754 0 0 1 -2.656178,-5.10242 65.937754,65.937754 0 0 1 -2.201194,-5.31438 65.937754,65.937754 0 0 1 -1.729752,-5.48607 65.937754,65.937754 0 0 1 -1.245018,-5.61598 65.937754,65.937754 0 0 1 -0.750861,-5.70321 65.937754,65.937754 0 0 1 -0.250957,-5.74683 65.937754,65.937754 0 0 1 0.250957,-5.74681 65.937754,65.937754 0 0 1 0.750861,-5.70321 65.937754,65.937754 0 0 1 1.245018,-5.61598 65.937754,65.937754 0 0 1 1.729752,-5.48607 65.937754,65.937754 0 0 1 2.201194,-5.31438 65.937754,65.937754 0 0 1 2.656178,-5.10242 65.937754,65.937754 0 0 1 3.090831,-4.85145 65.937754,65.937754 0 0 1 3.50165,-4.56371 65.937754,65.937754 0 0 1 3.886226,-4.24105 65.937754,65.937754 0 0 1 4.241042,-3.88622 65.937754,65.937754 0 0 1 4.563718,-3.501654 65.937754,65.937754 0 0 1 4.85145,-3.090832 65.937754,65.937754 0 0 1 5.102417,-2.656175 65.937754,65.937754 0 0 1 5.314383,-2.201191 65.937754,65.937754 0 0 1 5.486067,-1.729758 65.937754,65.937754 0 0 1 5.615982,-1.245018 65.937754,65.937754 0 0 1 5.703204,-0.750856 65.937754,65.937754 0 0 1 5.746832,-0.250962 z" />
    <text
       xml:space="preserve"
       transform="matrix(0.63854352,0,0,0.87533835,-180.33778,-3.4465513)"
       id="text13930"
       style="font-style:normal;font-weight:normal;font-size:40px;line-height:1.25;font-family:sans-serif;white-space:pre;shape-inside:url(#rect13932);fill:#000000;fill-opacity:1;stroke:none"><tspan
         x="437.5"
         y="158.36821"
         id="tspan860"><tspan
           style="font-weight:bold;font-family:'Yu Gothic UI';-inkscape-font-specification:'Yu Gothic UI Bold';fill:#dbdee3"
           id="tspan858">1</tspan></tspan></text>
    <text
       xml:space="preserve"
       transform="matrix(0.63854352,0,0,0.87533835,-199.46519,26.262675)"
       id="text13930-6"
       style="font-style:normal;font-weight:normal;font-size:40px;line-height:1.25;font-family:sans-serif;white-space:pre;shape-inside:url(#rect13932-9);fill:#000000;fill-opacity:1;stroke:none"><tspan
         x="437.5"
         y="158.36821"
         id="tspan864"><tspan
           style="font-weight:bold;font-family:'Yu Gothic UI';-inkscape-font-specification:'Yu Gothic UI Bold';fill:#dbdee3"
           id="tspan862">0110</tspan></tspan></text>
    <text
       xml:space="preserve"
       transform="matrix(0.63854352,0,0,0.87533835,-200.05654,55.091962)"
       id="text13930-2"
       style="font-style:normal;font-weight:normal;font-size:40px;line-height:1.25;font-family:sans-serif;white-space:pre;shape-inside:url(#rect13932-0);fill:#000000;fill-opacity:1;stroke:none"><tspan
         x="437.5"
         y="158.36821"
         id="tspan868"><tspan
           style="font-weight:bold;font-family:'Yu Gothic UI';-inkscape-font-specification:'Yu Gothic UI Bold';fill:#dbdee3"
           id="tspan866">1001</tspan></tspan></text>
    <text
       xml:space="preserve"
       transform="scale(0.26458333)"
       id="text18072"
       style="font-style:normal;font-weight:normal;font-size:40px;line-height:1.25;font-family:sans-serif;white-space:pre;shape-inside:url(#rect18074);fill:#000000;fill-opacity:1;stroke:none" />
  </g>
</svg>
